<?xml version="1.0" encoding="utf-8"?>
<!-- Generator: Adobe Illustrator 16.0.0, SVG Export Plug-In . SVG Version: 6.00 Build 0)  -->
<!DOCTYPE svg PUBLIC "-//W3C//DTD SVG 1.1//EN" "http://www.w3.org/Graphics/SVG/1.1/DTD/svg11.dtd">
<svg version="1.1" xmlns="http://www.w3.org/2000/svg" xmlns:xlink="http://www.w3.org/1999/xlink" x="0px" y="0px" width="1920px"
	 height="800px" viewBox="0 0 1920 1080" enable-background="new 0 0 1920 800" xml:space="preserve">
<g id="bottom">
	<path fill="#3F3F3F" d="M895.428,719.459l-94.11,94.11l63.64,63.641l207.712-207.713c-43.907,31.909-98.004,50.757-156.531,50.757
		C909.169,720.254,902.263,719.983,895.428,719.459z"/>
</g>
<g id="lowermid">
	<path fill="#3F3F3F" d="M1077.014,665.153l0.636,0.636c23.934-18.26,44.654-40.476,61.178-65.674L1096.64,558H969.577
		l37.908,37.908l5.889,5.855l-0.017,0.017l63.515,63.515L1077.014,665.153z"/>
</g>
<g id="lower">
	<path fill="#59FF31" d="M1013.357,601.78l-14.044,13.919c-25.021,14.318-53.761,22.408-84.333,22.408
		c-96.798,0-175.27-81.686-175.27-182.411c0-12.965,1.312-25.609,3.787-37.808l-87.363,87.363
		c22.24,115.818,120.201,204.702,240.363,213.138l-1.071,1.07c6.835,0.524,13.741,0.795,20.711,0.795
		c58.527,0,112.624-18.848,156.531-50.757l4.202-4.202L1013.357,601.78z"/>
</g>
<g id="mini">
	<path fill="#AAAAAA" d="M743.498,417.888l23.514-23.514l-12.38-12.38c-2.486,5.848-4.691,11.854-6.585,18.005
		C746.249,405.84,744.731,411.81,743.498,417.888z"/>
</g>
<g id="greensquare">
	<polygon fill="#59FF31" points="1178.119,639.341 1114.66,702.801 1180.832,768.972 1244.472,705.582 	"/>
</g>
<g id="centeer">
	<polygon fill="#59FF31" points="1096.64,558 964.382,425.492 900.742,489.257 969.36,558 969.577,558 	"/>
</g>
<g id="top">
	<g>
		<path fill="#3F3F3F" d="M914.98,273.3c54.201,0,102.651,25.598,134.801,65.814l61.025-61.029
			c-48.276-53.271-118.012-86.734-195.565-86.734c-21.735,0-42.856,2.63-63.063,7.586c-0.083,0.021-0.166,0.04-0.249,0.061
			c-1.642,0.404-3.277,0.828-4.907,1.263c-0.343,0.092-0.686,0.184-1.027,0.277c-1.517,0.411-3.028,0.835-4.533,1.272
			c-0.385,0.112-0.768,0.228-1.152,0.341c-1.522,0.45-3.042,0.908-4.554,1.385c-0.161,0.05-0.32,0.104-0.48,0.155
			c-60.966,19.368-112.319,60.294-145.128,113.82l64.484,64.484C781.841,317.98,843.39,273.3,914.98,273.3z"/>
	</g>
</g>
</svg>

